<?xml version="1.0" encoding="utf-8"?>
<!-- Generator: Adobe Illustrator 23.1.1, SVG Export Plug-In . SVG Version: 6.00 Build 0)  -->
<svg version="1.1" id="레이어_1" xmlns="http://www.w3.org/2000/svg" xmlns:xlink="http://www.w3.org/1999/xlink" x="0px"
	 y="0px" viewBox="0 0 512 512" style="enable-background:new 0 0 512 512;" xml:space="preserve">
<style type="text/css">
	.st0{fill:#FFFFFF;}
</style>
<path class="st0" d="M414,276.8c1.1-6.2,1.1-13.5,1.1-20.8c0-7.3-1.1-13.5-1.1-20.8l44.7-34.3c4.3-3.1,5.3-8.3,2.1-13.5l-42.5-71.8
	c-2.1-4.2-8.5-6.2-12.8-4.2l-53.2,20.8c-10.6-8.3-23.4-15.6-36.2-20.8l-7.4-55.1c-1.1-4.2-5.3-8.3-10.6-8.3h-85.1
	c-5.3,0-9.6,4.2-10.6,8.3l-8.5,55.1c-12.8,5.2-24.5,12.5-36.2,20.8l-53.2-20.8c-5.3-2.1-10.6,0-12.8,4.2l-42.5,71.8
	c-2.1,4.2-1.1,10.4,2.1,13.5L97,235.2c0,7.3-1.1,13.5-1.1,20.8s1.1,13.5,1.1,20.8l-44.7,34.3c-4.3,3.1-5.3,8.3-2.1,13.5l42.5,71.8
	c2.1,4.2,8.5,6.2,12.8,4.2l53.2-20.8c10.6,8.3,23.4,15.6,36.2,20.8l8.5,55.1c1.1,5.2,5.3,8.3,10.6,8.3h85.1c5.3,0,9.6-4.2,10.6-8.3
	l8.5-55.1c12.8-5.2,24.5-12.5,36.2-20.8l53.2,20.8c5.3,2.1,10.6,0,12.8-4.2l42.5-71.8c2.1-4.2,1.1-10.4-2.1-13.5L414,276.8
	L414,276.8z M255.5,328.8c-41.5,0-74.5-32.2-74.5-72.8s33-72.8,74.5-72.8s74.5,32.2,74.5,72.8S297,328.8,255.5,328.8z"/>
</svg>
